<?xml version="1.0" encoding="utf-8"?>
<!-- Generator: Adobe Illustrator 19.0.0, SVG Export Plug-In . SVG Version: 6.00 Build 0)  -->
<svg version="1.1" id="Layer_1" xmlns="http://www.w3.org/2000/svg" xmlns:xlink="http://www.w3.org/1999/xlink" x="0px" y="0px"
	 viewBox="0 0 500 500" style="enable-background:new 0 0 500 500;" xml:space="preserve">
<style type="text/css">
	.st0{fill:#949494;}
	.st1{fill:#261003;}
	.st2{fill:#534C48;}
	.st3{fill:#FE7903;}
	.st4{fill:#F67F32;}
</style>
<g id="XMLID_1_">
	<polyline id="XMLID_19_" class="st0" points="354.8,68.4 354.7,68.4 427.3,144.1 427.3,431.6 156.3,431.6 156.3,432.5 428.2,432.5 
		428.2,145 354.8,68.4 	"/>
	<polyline id="XMLID_20_" class="st1" points="353.8,67.5 155.4,67.5 155.4,431.6 427.3,431.6 427.3,144.1 353.8,67.5 	"/>
	<polyline id="XMLID_21_" class="st2" points="352.9,68.4 352.9,145 426.3,145 352.9,68.4 	"/>
	<polygon id="XMLID_22_" class="st3" points="353.8,67.5 353.8,144.1 427.3,144.1 	"/>
	<polyline id="XMLID_23_" class="st0" points="155.4,86.2 72.5,86.2 72.5,175.2 155.4,175.2 155.4,86.2 	"/>
	<polyline id="XMLID_24_" class="st2" points="334.2,86.2 155.4,86.2 155.4,175.2 334.2,175.2 334.2,86.2 	"/>
	<rect id="XMLID_30_" x="71.8" y="85.5" class="st3" width="261.7" height="89.1"/>
	<path id="XMLID_34_" class="st4" d="M241.2,330.6l-10.9,36.2c-0.2,1.2-0.7,1.7-1.8,1.7h-18.3c-1.3,0-1.6-0.6-1.3-2.1
		c9.7-31.9,26-84.9,37.4-121c0.5-2.1,1.1-4.2,1.4-11.5c0-0.8,0.5-1.2,1.1-1.2h24.7c0.9,0,1.1,0.2,1.4,1
		c13.3,42.7,27.8,89.7,41.4,132.8c0.4,1.2,0,1.9-1.1,1.9h-20.1c-0.9,0-1.3-0.4-1.6-1.2l-11.5-36.6H241.2z M277.3,310.2
		c-3.6-13.9-12.4-42.1-15.9-56.6h-0.2c-2.7,13.7-10,37.3-15.4,56.6H277.3z"/>
	<path id="XMLID_37_" class="st4" d="M330.8,241.8c0-7.7,5.1-12.9,12-12.9c7.2,0,11.6,5.2,11.6,12.9c0,7.9-4.8,12.9-11.8,12.9
		C335.5,254.8,330.8,249.8,330.8,241.8z M332,270.2c0-1.2,0.4-1.7,1.2-1.7h18.7c1.1,0,1.4,0.2,1.4,1.7V368c0,1-0.4,1.7-1.4,1.7
		h-18.3c-1.1,0-1.6-0.4-1.6-1.9V270.2z"/>
	<path id="XMLID_40_" class="st1" d="M165.3,162.6l13.8-63.4h17.7l13.5,63.4h-14.8l-2-14.8h-11.5l-1.9,14.8H165.3z M187.9,110.2
		h-0.2l-4.3,27h8.5L187.9,110.2z"/>
	<rect id="XMLID_41_" x="216.6" y="99.3" class="st1" width="14.2" height="63.4"/>
</g>
</svg>
